<svg width="260" height="266" viewBox="0 0 260 266" fill="none" xmlns="http://www.w3.org/2000/svg">
    <path fill-rule="evenodd" clip-rule="evenodd"
          d="M44 23C44 35.4264 34.1503 45.5 22 45.5C9.84974 45.5 0 35.4264 0 23C0 10.5736 9.84974 0.5 22 0.5C34.1503 0.5 44 10.5736 44 23ZM98 23C98 35.4264 88.1503 45.5 76 45.5C63.8497 45.5 54 35.4264 54 23C54 10.5736 63.8497 0.5 76 0.5C88.1503 0.5 98 10.5736 98 23ZM130 45.5C142.15 45.5 152 35.4264 152 23C152 10.5736 142.15 0.5 130 0.5C117.85 0.5 108 10.5736 108 23C108 35.4264 117.85 45.5 130 45.5ZM206 23C206 35.4264 196.15 45.5 184 45.5C171.85 45.5 162 35.4264 162 23C162 10.5736 171.85 0.5 184 0.5C196.15 0.5 206 10.5736 206 23ZM238 45.5C250.15 45.5 260 35.4264 260 23C260 10.5736 250.15 0.5 238 0.5C225.85 0.5 216 10.5736 216 23C216 35.4264 225.85 45.5 238 45.5ZM44 78C44 90.4264 34.1503 100.5 22 100.5C9.84974 100.5 0 90.4264 0 78C0 65.5736 9.84974 55.5 22 55.5C34.1503 55.5 44 65.5736 44 78ZM76 100.5C88.1503 100.5 98 90.4264 98 78C98 65.5736 88.1503 55.5 76 55.5C63.8497 55.5 54 65.5736 54 78C54 90.4264 63.8497 100.5 76 100.5ZM152 78C152 90.4264 142.15 100.5 130 100.5C117.85 100.5 108 90.4264 108 78C108 65.5736 117.85 55.5 130 55.5C142.15 55.5 152 65.5736 152 78ZM184 100.5C196.15 100.5 206 90.4264 206 78C206 65.5736 196.15 55.5 184 55.5C171.85 55.5 162 65.5736 162 78C162 90.4264 171.85 100.5 184 100.5ZM260 78C260 90.4264 250.15 100.5 238 100.5C225.85 100.5 216 90.4264 216 78C216 65.5736 225.85 55.5 238 55.5C250.15 55.5 260 65.5736 260 78ZM22 155.5C34.1503 155.5 44 145.426 44 133C44 120.574 34.1503 110.5 22 110.5C9.84974 110.5 0 120.574 0 133C0 145.426 9.84974 155.5 22 155.5ZM98 133C98 145.426 88.1503 155.5 76 155.5C63.8497 155.5 54 145.426 54 133C54 120.574 63.8497 110.5 76 110.5C88.1503 110.5 98 120.574 98 133ZM130 155.5C142.15 155.5 152 145.426 152 133C152 120.574 142.15 110.5 130 110.5C117.85 110.5 108 120.574 108 133C108 145.426 117.85 155.5 130 155.5ZM206 133C206 145.426 196.15 155.5 184 155.5C171.85 155.5 162 145.426 162 133C162 120.574 171.85 110.5 184 110.5C196.15 110.5 206 120.574 206 133ZM238 155.5C250.15 155.5 260 145.426 260 133C260 120.574 250.15 110.5 238 110.5C225.85 110.5 216 120.574 216 133C216 145.426 225.85 155.5 238 155.5ZM44 188C44 200.426 34.1503 210.5 22 210.5C9.84974 210.5 0 200.426 0 188C0 175.574 9.84974 165.5 22 165.5C34.1503 165.5 44 175.574 44 188ZM76 210.5C88.1503 210.5 98 200.426 98 188C98 175.574 88.1503 165.5 76 165.5C63.8497 165.5 54 175.574 54 188C54 200.426 63.8497 210.5 76 210.5ZM152 188C152 200.426 142.15 210.5 130 210.5C117.85 210.5 108 200.426 108 188C108 175.574 117.85 165.5 130 165.5C142.15 165.5 152 175.574 152 188ZM184 210.5C196.15 210.5 206 200.426 206 188C206 175.574 196.15 165.5 184 165.5C171.85 165.5 162 175.574 162 188C162 200.426 171.85 210.5 184 210.5ZM260 188C260 200.426 250.15 210.5 238 210.5C225.85 210.5 216 200.426 216 188C216 175.574 225.85 165.5 238 165.5C250.15 165.5 260 175.574 260 188ZM22 265.5C34.1503 265.5 44 255.426 44 243C44 230.574 34.1503 220.5 22 220.5C9.84974 220.5 0 230.574 0 243C0 255.426 9.84974 265.5 22 265.5ZM98 243C98 255.426 88.1503 265.5 76 265.5C63.8497 265.5 54 255.426 54 243C54 230.574 63.8497 220.5 76 220.5C88.1503 220.5 98 230.574 98 243ZM130 265.5C142.15 265.5 152 255.426 152 243C152 230.574 142.15 220.5 130 220.5C117.85 220.5 108 230.574 108 243C108 255.426 117.85 265.5 130 265.5ZM206 243C206 255.426 196.15 265.5 184 265.5C171.85 265.5 162 255.426 162 243C162 230.574 171.85 220.5 184 220.5C196.15 220.5 206 230.574 206 243ZM238 265.5C250.15 265.5 260 255.426 260 243C260 230.574 250.15 220.5 238 220.5C225.85 220.5 216 230.574 216 243C216 255.426 225.85 265.5 238 265.5Z"
          fill="url(#paint0_linear_143_776)"/>
    <defs>
        <linearGradient id="paint0_linear_143_776" x1="-20" y1="-17" x2="280" y2="283" gradientUnits="userSpaceOnUse">
            <stop stop-color="#F83A45"/>
            <stop offset="1" stop-color="#EB1925"/>
        </linearGradient>
    </defs>
</svg>
