<svg width="23" height="24" viewBox="0 0 23 24" fill="none" xmlns="http://www.w3.org/2000/svg">
<g opacity="0.5">
<path d="M4.30756 18.6667C4.30519 1.12945 7.76927 0.666668 11.9229 1.33336L18.8462 4L19.5383 18C15.3847 19.3333 4.30765 19.3333 4.30756 18.6667Z" fill="#838C9A"/>
<path fill-rule="evenodd" clip-rule="evenodd" d="M19.3707 18L18.5254 7.53475C18.2731 4.41092 15.5672 2 12.3134 2H11.5328C8.27905 2 5.57312 4.41092 5.32081 7.53474L4.47554 18H19.3707ZM3.25014 7.37965L2.39234 18L0.846191 18V20L6.55914 20C7.17397 22.3003 9.34241 24 11.9231 24C14.5038 24 16.6723 22.3003 17.2871 20H23V18H21.4539L20.5961 7.37966C20.2597 3.21456 16.6518 0 12.3134 0H11.5328C7.19447 0 3.58655 3.21455 3.25014 7.37965ZM15.0966 20H8.74961C9.28376 21.1773 10.5037 22 11.9231 22C13.3426 22 14.5625 21.1773 15.0966 20Z" fill="#838C9A"/>
</g>
</svg>
