<svg width="33" height="33" viewBox="0 0 33 33" fill="none" xmlns="http://www.w3.org/2000/svg">
<path d="M11.496 3.29166V7.29166" stroke="#BDC6D5" stroke-width="1.5" stroke-miterlimit="10" stroke-linecap="round" stroke-linejoin="round"/>
<path d="M22.1627 3.29166V7.29166" stroke="#BDC6D5" stroke-width="1.5" stroke-miterlimit="10" stroke-linecap="round" stroke-linejoin="round"/>
<path d="M25.096 29.1583C27.4524 29.1583 29.3627 27.2481 29.3627 24.8917C29.3627 22.5353 27.4524 20.625 25.096 20.625C22.7396 20.625 20.8294 22.5353 20.8294 24.8917C20.8294 27.2481 22.7396 29.1583 25.096 29.1583Z" stroke="#BDC6D5" stroke-width="1.5" stroke-linecap="round" stroke-linejoin="round"/>
<path d="M30.1627 29.9583L28.8294 28.625" stroke="#BDC6D5" stroke-width="1.5" stroke-linecap="round" stroke-linejoin="round"/>
<path d="M5.49602 12.745H28.1627" stroke="#BDC6D5" stroke-width="1.5" stroke-miterlimit="10" stroke-linecap="round" stroke-linejoin="round"/>
<path d="M18.656 29.9583H11.496C6.82935 29.9583 4.82935 27.2917 4.82935 23.2917V11.9583C4.82935 7.95832 6.82935 5.29166 11.496 5.29166H22.1627C26.8294 5.29166 28.8294 7.95832 28.8294 11.9583V17.9583" stroke="#BDC6D5" stroke-width="1.5" stroke-miterlimit="10" stroke-linecap="round" stroke-linejoin="round"/>
<path d="M16.8233 18.8917H16.8353" stroke="#BDC6D5" stroke-width="1.5" stroke-linecap="round" stroke-linejoin="round"/>
<path d="M11.8884 18.8917H11.9004" stroke="#BDC6D5" stroke-width="1.5" stroke-linecap="round" stroke-linejoin="round"/>
<path d="M11.8884 22.8917H11.9004" stroke="#BDC6D5" stroke-width="1.5" stroke-linecap="round" stroke-linejoin="round"/>
</svg>
