<svg width="33" height="33" viewBox="0 0 33 33" fill="none" xmlns="http://www.w3.org/2000/svg">
<path d="M3.49602 3.29166H5.81603C7.25603 3.29166 8.38936 4.53166 8.26936 5.95832L7.16269 19.2383C6.97602 21.4116 8.69601 23.2783 10.8827 23.2783H25.0827C27.0027 23.2783 28.6827 21.705 28.8294 19.7983L29.5493 9.79833C29.7093 7.585 28.0293 5.78498 25.8027 5.78498H8.58936" stroke="#BDC6D5" stroke-width="1.5" stroke-miterlimit="10" stroke-linecap="round" stroke-linejoin="round"/>
<path d="M22.496 29.9583C23.4165 29.9583 24.1627 29.2121 24.1627 28.2917C24.1627 27.3712 23.4165 26.625 22.496 26.625C21.5755 26.625 20.8294 27.3712 20.8294 28.2917C20.8294 29.2121 21.5755 29.9583 22.496 29.9583Z" stroke="#BDC6D5" stroke-width="1.5" stroke-miterlimit="10" stroke-linecap="round" stroke-linejoin="round"/>
<path d="M11.8294 29.9583C12.7498 29.9583 13.496 29.2121 13.496 28.2917C13.496 27.3712 12.7498 26.625 11.8294 26.625C10.9089 26.625 10.1627 27.3712 10.1627 28.2917C10.1627 29.2121 10.9089 29.9583 11.8294 29.9583Z" stroke="#BDC6D5" stroke-width="1.5" stroke-miterlimit="10" stroke-linecap="round" stroke-linejoin="round"/>
<path d="M12.8294 11.2917H28.8294" stroke="#BDC6D5" stroke-width="1.5" stroke-miterlimit="10" stroke-linecap="round" stroke-linejoin="round"/>
</svg>
