<svg width="33" height="33" viewBox="0 0 33 33" fill="none" xmlns="http://www.w3.org/2000/svg">
<path d="M30.1627 8.62499V11.8517C30.1627 13.9583 28.8294 15.2917 26.7227 15.2917H22.1627V5.97165C22.1627 4.49165 23.376 3.29166 24.856 3.29166C26.3094 3.30499 27.6427 3.89165 28.6027 4.85165C29.5627 5.82499 30.1627 7.15832 30.1627 8.62499Z" stroke="#BDC6D5" stroke-width="1.5" stroke-miterlimit="10" stroke-linecap="round" stroke-linejoin="round"/>
<path d="M3.49602 9.95832V28.625C3.49602 29.7317 4.74935 30.3583 5.62935 29.6917L7.90935 27.985C8.44269 27.585 9.18935 27.6383 9.66935 28.1183L11.8827 30.345C12.4027 30.865 13.256 30.865 13.776 30.345L16.016 28.105C16.4827 27.6383 17.2294 27.585 17.7494 27.985L20.0294 29.6917C20.9094 30.345 22.1627 29.7183 22.1627 28.625V5.95832C22.1627 4.49166 23.3627 3.29166 24.8294 3.29166H10.1627H8.82935C4.82935 3.29166 3.49602 5.67832 3.49602 8.62499V9.95832Z" stroke="#BDC6D5" stroke-width="1.5" stroke-miterlimit="10" stroke-linecap="round" stroke-linejoin="round"/>
<path d="M12.8294 17.9717H16.8294" stroke="#BDC6D5" stroke-width="1.5" stroke-linecap="round" stroke-linejoin="round"/>
<path d="M12.8294 12.6383H16.8294" stroke="#BDC6D5" stroke-width="1.5" stroke-linecap="round" stroke-linejoin="round"/>
<path d="M8.82349 17.9583H8.83547" stroke="#BDC6D5" stroke-width="1.5" stroke-linecap="round" stroke-linejoin="round"/>
<path d="M8.82349 12.625H8.83547" stroke="#171717" stroke-width="1.5" stroke-linecap="round" stroke-linejoin="round"/>
</svg>
